# xmcd
#
# Track frame offsets: 
#        150
#        13832
#        26347
#        44567
#        55462
#        71517
#        83370
#        100237
#        113582
#        128197
#        138185
#        150847
#        161987
#        175475
#        189120
#        202765
#        214367
#        226432
#        236902
#        246142
#        258132
#        269952
#        282000
#        295210
#        309007
#        325805
#        338615
#        349490
#
# Disc length: 4789 seconds
#
# Revision: 0
# Processed by: cddbd v1.5.1PL0 Copyright (c) Steve Scherf et al.
# Submitted via: ExactAudioCopy v0.95a4
#
DISCID=9112b31c
DTITLE=Willie Nelson - Nashville Was The Roughest... - Disc 6
DYEAR=1900
DGENRE=Country
TTITLE0=Yours Love
TTITLE1=Kneel At The Feet Of Jesus
TTITLE2=Today I Started Loving You Again
TTITLE3=I'm So Lonesome I Could Cry
TTITLE4=Will You Remember
TTITLE5=Wonderful Future
TTITLE6=Wake Me Up When It's Over
TTITLE7=Help Me Make It Through The Night
TTITLE8=Rainy Day Blues
TTITLE9=If You Really Loved Me
TTITLE10=The Words Don't Fit The Picture
TTITLE11=What Do You Want Me To Do
TTITLE12=Stay Away From Lonely Places
TTITLE13=Good Hearted Woman
TTITLE14=Home Is Where You're Happy
TTITLE15=My Kind Of Girl
TTITLE16=I'd Rather You Didn't Love Me
TTITLE17=Undo The Right
TTITLE18=One Step Beyond
TTITLE19=I Want A Girl
TTITLE20=Country Willie
TTITLE21=You Left A Long, Long Time Ago
TTITLE22=London
TTITLE23=A Moment Isn't Very Long
TTITLE24=Who'll Buy Me Memories
TTITLE25=No Love Around
TTITLE26=Come On Home
TTITLE27=Mountain Dew
EXTD=
EXTT0=
EXTT1=
EXTT2=
EXTT3=
EXTT4=
EXTT5=
EXTT6=
EXTT7=
EXTT8=
EXTT9=
EXTT10=
EXTT11=
EXTT12=
EXTT13=
EXTT14=
EXTT15=
EXTT16=
EXTT17=
EXTT18=
EXTT19=
EXTT20=
EXTT21=
EXTT22=
EXTT23=
EXTT24=
EXTT25=
EXTT26=
EXTT27=
PLAYORDER=
